Coordinates
version=1
nRows=9
nColumns=36
inDegrees=yes

Units are S.I. units (second, meters, Newtons, ...)
If the header above contains a line with 'inDegrees', this indicates whether rotational values are in degrees (yes) or radians (no).

endheader
time	pelvis_tilt	pelvis_list	pelvis_rotation	pelvis_tx	pelvis_ty	pelvis_tz	hip_flexion_r	hip_adduction_r	hip_rotation_r	knee_angle_r	knee_angle_r_beta	ankle_angle_r	subtalar_angle_r	mtp_angle_r	hip_flexion_l	hip_adduction_l	hip_rotation_l	knee_angle_l	knee_angle_l_beta	ankle_angle_l	subtalar_angle_l	mtp_angle_l	lumbar_extension	lumbar_bending	lumbar_rotation	arm_flex_r	arm_add_r	arm_rot_r	elbow_flex_r	pro_sup_r	arm_flex_l	arm_add_l	arm_rot_l	elbow_flex_l	pro_sup_l
      2.26000000	     -8.16663491	     -0.82163774	      1.21047451	      0.46531361	      0.98613185	     -0.04339551	      5.65757153	     -2.81581478	     -5.12632319	      5.88938519	      0.10278916	    -14.14848365	    -20.50673201	     -7.49999987	      5.47786309	     -4.07030556	      4.65599646	      9.31692745	      0.16261106	    -14.62405639	    -24.96514274	     -7.49999987	      4.53612513	     -1.37969541	     -4.79622866	     -2.45362177	     -6.73293785	      0.43307216	     21.17954293	     74.83002236	      0.75631964	    -13.23350430	     29.58009111	     44.70221392	     88.97373837
      2.26166670	     -8.21308651	     -0.81756573	      1.09754537	      0.46523702	      0.98639479	     -0.04432165	      5.75335836	     -2.80338978	     -5.08746958	      5.97024683	      0.10420046	    -14.18364850	    -20.67032663	     -7.49999987	      5.46915925	     -4.08770604	      4.53559012	      9.23646667	      0.16120675	    -14.72548107	    -25.05968942	     -7.49999987	      4.64485674	     -1.39445329	     -4.78138730	     -2.68933125	     -6.78358873	      0.32945584	     21.14713049	     74.31151856	      0.41261866	    -13.32224244	     29.41787062	     45.00885945	     88.42038807
      2.26333330	     -8.33081266	     -0.82141572	      1.00038543	      0.46463168	      0.98490684	     -0.04299075	      5.96741698	     -2.76994107	     -4.93186222	      6.11911973	      0.10679879	    -14.10746016	    -20.87534288	     -7.49999987	      5.57493899	     -4.10165136	      4.48149754	      9.22799704	      0.16105893	    -14.70495368	    -25.13398587	     -7.49999987	      4.90991520	     -1.39954272	     -4.84386321	     -2.84672327	     -6.80578893	      0.09409132	     20.88696022	     73.77372040	      0.21556213	    -13.29310560	     29.35596297	     44.61247462	     87.78424926
      2.26500000	     -8.40701881	     -0.82483127	      0.85093308	      0.46398212	      0.98220568	     -0.04102507	      6.16031352	     -2.71165427	     -4.75148100	      6.25026176	      0.10908765	    -13.96919416	    -21.01713880	     -7.49999987	      5.66248426	     -4.16291860	      4.29681102	      9.28434657	      0.16204242	    -14.60615313	    -25.08017803	     -7.49999987	      5.08211542	     -1.42153284	     -4.73918380	     -3.02944029	     -6.81939151	     -0.07853976	     20.68360899	     73.45771144	      0.07528438	    -13.35721584	     29.38329708	     44.50555439	     87.38198205
      2.26666670	     -8.70139616	     -0.84245324	      0.71895352	      0.46471668	      0.98083286	     -0.04164716	      6.59402359	     -2.66488946	     -4.60741916	      6.42510798	      0.11213929	    -13.90366132	    -21.26126303	     -7.49999987	      6.02571159	     -4.20195575	      4.34354017	      9.42057900	      0.16442012	    -14.62328351	    -25.32560584	     -7.49999987	      5.62686007	     -1.43086668	     -4.56176162	     -3.27175690	     -6.81593978	     -0.49484307	     20.24952172	     73.00972847	      0.00845112	    -13.38878704	     29.82164723	     44.18528656	     86.94570907
      2.26833330	     -8.69070172	     -0.82404088	      0.59975921	      0.46456158	      0.98351876	     -0.04152099	      6.60103658	     -2.65239476	     -4.50476948	      6.42488127	      0.11213533	    -13.67921770	    -21.13021738	     -7.49999987	      5.92840064	     -4.22088404	      4.15147828	      9.31785053	      0.16262717	    -14.49561490	    -25.16024808	     -7.49999987	      5.71340374	     -1.44522277	     -4.53655031	     -3.34874690	     -6.74343551	     -0.85505834	     19.96040549	     70.58987724	     -0.15880031	    -13.36571320	     29.81754310	     43.97788537	     83.40119808
      2.27000000	     -8.90579748	     -0.81242643	      0.48098019	      0.46367723	      0.98246457	     -0.04269953	      6.93025262	     -2.66346950	     -4.34494214	      6.53387160	      0.11403757	    -13.72580654	    -21.45912545	     -7.49999987	      6.17191992	     -4.18739409	      4.22362435	      9.34709762	      0.16313763	    -14.59158696	    -25.42169899	     -7.49999987	      6.08519260	     -1.41552130	     -4.45467357	     -3.52708224	     -6.83475258	     -0.79818185	     19.75104255	     70.49183147	     -0.22371124	    -13.35753147	     30.18596423	     43.67731685	     83.49941175
      2.27166670	     -9.09120719	     -0.78555311	      0.36861616	      0.46458642	      0.98227471	     -0.04225103	      7.16807330	     -2.67223847	     -4.25157231	      6.56703874	      0.11461645	    -13.61050893	    -21.49747916	     -7.49999987	      6.34019695	     -4.13603037	      4.18739531	      9.34899936	      0.16317082	    -14.43650326	    -25.27534918	     -7.49999987	      6.41961863	     -1.44746940	     -4.31920891	     -3.86308527	     -6.80204023	     -2.12756231	     19.63022098	     73.70547382	     -0.40479660	    -13.28979823	     29.43512607	     43.42358044	     90.55217728
      2.27333330	     -9.12231831	     -0.75916844	      0.29243328	      0.46445467	      0.97997166	     -0.04192208	      7.23165775	     -2.68743739	     -4.15872020	      6.61226642	      0.11540582	    -13.33398984	    -21.46572435	     -7.49999987	      6.28193333	     -4.08392300	      4.17066592	      9.24185928	      0.16130087	    -14.28068472	    -25.29019098	     -7.49999987	      6.53729648	     -1.41860291	     -4.22486254	     -3.98584353	     -6.79339698	     -2.56411404	     19.33887346	     71.54775907	     -0.44003312	    -13.31229866	     29.99904408	     43.20329491	     86.40026957
